<svg width="489" height="435" viewBox="0 0 489 435" fill="none" xmlns="http://www.w3.org/2000/svg">
<g clip-path="url(#clip0_669_3743)">
<path d="M174.39 60.2833L134.719 39.9821C134.112 39.6711 133.416 39.5194 132.714 39.5447C132.012 39.5702 131.333 39.7715 130.755 40.1255L122.044 44.5798L126.09 49.4402L127.6 50.9686V85.7672C127.602 86.7857 127.906 87.7858 128.481 88.668C129.056 89.5501 129.883 90.2834 130.877 90.7948L160.541 105.985L160.906 107.513L166.961 115.025L176.278 110.176C176.701 109.933 177.048 109.599 177.284 109.203C177.52 108.809 177.638 108.366 177.626 107.919V65.4661C177.642 64.4275 177.353 63.4033 176.784 62.4943C176.217 61.5854 175.391 60.8233 174.39 60.2833Z" fill="#F4767A"/>
<path d="M165.154 65.1086L125.024 44.6044C124.578 44.3788 124.072 44.2609 123.558 44.2625C123.044 44.2641 122.539 44.3852 122.095 44.6136C121.649 44.842 121.28 45.1699 121.023 45.5643C120.766 45.9587 120.63 46.406 120.629 46.8615V89.3983C120.628 90.4161 120.928 91.4164 121.501 92.2988C122.074 93.1812 122.898 93.9148 123.892 94.4258L164.021 114.966C164.477 115.2 164.997 115.325 165.525 115.326C166.054 115.327 166.574 115.204 167.031 114.971C167.49 114.737 167.87 114.4 168.135 113.995C168.399 113.59 168.539 113.13 168.538 112.661V70.3032C168.541 69.25 168.229 68.2146 167.636 67.3023C167.041 66.39 166.185 65.6331 165.154 65.1086Z" fill="#ED5561"/>
<path d="M168.538 112.66V70.3024C168.524 69.603 168.369 68.9114 168.079 68.2603L177.383 63.4836C177.654 64.1093 177.8 64.772 177.815 65.4421V107.811C177.827 108.259 177.709 108.701 177.473 109.096C177.237 109.491 176.89 109.826 176.466 110.068L167.23 114.846C167.633 114.604 167.963 114.278 168.191 113.897C168.419 113.516 168.538 113.091 168.538 112.66Z" fill="#D8395A"/>
<path d="M130.163 64.9642L125.281 62.4802V78.0046L128.53 79.6526V74.1354L129.879 74.84C131.78 75.8073 133.237 76.1178 134.275 75.7596C135.313 75.4013 135.812 74.3743 135.826 72.7024C135.848 71.1523 135.35 69.6313 134.396 68.3317C133.299 66.9332 131.85 65.7802 130.163 64.9642ZM131.807 72.5353C131.413 72.5827 131.011 72.5596 130.626 72.4673C130.242 72.375 129.883 72.2153 129.569 71.9978L128.504 71.4486V66.839L129.973 67.5913C130.759 67.9582 131.431 68.4915 131.929 69.1438C132.351 69.7533 132.562 70.4591 132.536 71.1739C132.589 71.9381 132.306 72.392 131.807 72.5353Z" fill="white"/>
<path d="M147.125 79.749L141.084 76.6561L141.098 70.5657L137.861 68.9058L137.808 84.4541L141.058 86.114L141.071 79.4027L147.125 82.4956L147.098 89.207L150.335 90.8549L150.388 75.3066L147.152 73.6586L147.125 79.749Z" fill="white"/>
<path d="M162.497 82.7221C161.406 81.3156 159.956 80.1576 158.263 79.3425L153.382 76.8467V92.3711L156.618 94.0309V88.5258L157.966 89.2303C159.868 90.2096 161.324 90.5081 162.349 90.1499C163.373 89.7916 163.912 88.7766 163.912 87.0927C163.94 85.5439 163.446 84.0229 162.497 82.7221ZM159.908 86.9136C159.11 86.9981 158.306 86.8008 157.67 86.3643L156.605 85.815V81.2412L158.074 81.9936C158.856 82.366 159.527 82.8982 160.03 83.546C160.449 84.1564 160.66 84.8617 160.636 85.5761C160.65 86.3046 160.407 86.7584 159.908 86.9136Z" fill="white"/>
<path d="M27.184 227.051L154.487 161.609C157.139 160.251 160.148 159.535 163.212 159.535C166.274 159.535 169.283 160.251 171.935 161.609L372.457 264.309C373.622 264.905 374.589 265.763 375.261 266.796C375.933 267.828 376.287 268.999 376.287 270.19C376.287 271.382 375.933 272.553 375.261 273.585C374.589 274.617 373.622 275.474 372.457 276.072L248.012 340.092C244.862 341.708 241.285 342.56 237.643 342.56C234.002 342.56 230.425 341.708 227.274 340.092L27.211 237.606C26.1656 237.072 25.2969 236.304 24.6922 235.379C24.0874 234.454 23.7676 233.404 23.7649 232.335C23.7621 231.267 24.0765 230.215 24.6766 229.288C25.2767 228.36 26.1413 227.589 27.184 227.051Z" fill="#E8EBF5"/>
<path d="M27.2108 237.607L227.274 340.104C230.425 341.72 234.002 342.572 237.643 342.572C241.285 342.572 244.862 341.72 248.012 340.104L372.484 276.108C373.646 275.516 374.611 274.664 375.281 273.636C375.951 272.609 376.302 271.443 376.3 270.256V278.855C376.289 280.022 375.934 281.166 375.269 282.173C374.604 283.18 373.654 284.017 372.511 284.598L248.012 348.57C244.862 350.188 241.285 351.038 237.643 351.038C234.002 351.038 230.425 350.188 227.274 348.57L27.2108 246.097C26.1493 245.57 25.269 244.796 24.6635 243.861C24.0582 242.925 23.7502 241.862 23.7724 240.784V232.424C23.7768 233.48 24.0973 234.516 24.7015 235.427C25.3055 236.337 26.1714 237.09 27.2108 237.607Z" fill="#A7BCCE"/>
<path d="M27.2108 237.607L227.274 340.104C230.157 341.562 233.396 342.381 236.713 342.492V350.971C233.396 350.86 230.157 350.041 227.274 348.583L27.2108 246.097C26.1493 245.57 25.269 244.796 24.6636 243.861C24.0582 242.925 23.7502 241.862 23.7724 240.784V232.424C23.7768 233.48 24.0973 234.516 24.7015 235.427C25.3055 236.337 26.1714 237.09 27.2108 237.607Z" fill="#BBCEE1"/>
<path d="M121.249 250.718L142.823 239.649C143.325 239.396 143.891 239.263 144.469 239.263C145.045 239.263 145.612 239.396 146.113 239.649L212.833 273.825C213.051 273.938 213.233 274.099 213.358 274.293C213.484 274.487 213.551 274.707 213.551 274.93C213.551 275.154 213.484 275.373 213.358 275.567C213.233 275.761 213.051 275.922 212.833 276.035L191.757 286.783C191.165 287.088 190.493 287.249 189.808 287.249C189.124 287.249 188.451 287.088 187.86 286.783L121.222 252.665C121.048 252.553 120.907 252.405 120.812 252.235C120.715 252.064 120.666 251.876 120.669 251.685C120.671 251.495 120.725 251.308 120.826 251.139C120.927 250.971 121.072 250.826 121.249 250.718Z" fill="#0F4463"/>
<path d="M121.249 252.712L187.874 286.83C188.466 287.136 189.138 287.296 189.823 287.296C190.507 287.296 191.18 287.136 191.771 286.83L212.846 276.082C213.064 275.971 213.245 275.811 213.37 275.618C213.496 275.425 213.562 275.206 213.562 274.984V277.241C213.558 277.46 213.491 277.674 213.366 277.863C213.24 278.051 213.061 278.207 212.846 278.316L191.771 289.063C191.18 289.369 190.507 289.53 189.823 289.53C189.138 289.53 188.466 289.369 187.874 289.063L121.235 254.946C121.04 254.841 120.879 254.693 120.766 254.517C120.653 254.342 120.592 254.144 120.588 253.943V251.686C120.588 251.893 120.649 252.096 120.765 252.276C120.881 252.456 121.048 252.607 121.249 252.712Z" fill="#0B3B56"/>
<path d="M142.594 242.753L145.305 241.367L148.379 242.932L145.682 244.318L142.594 242.753Z" fill="#1F5E77"/>
<path d="M146.438 244.712L149.147 243.315L152.209 244.891L149.525 246.276L146.438 244.712Z" fill="#1F5E77"/>
<path d="M150.267 246.669L152.977 245.271L156.051 246.848L153.355 248.234L150.267 246.669Z" fill="#1F5E77"/>
<path d="M154.109 248.617L156.807 247.231L159.88 248.795L157.184 250.181L154.109 248.617Z" fill="#1F5E77"/>
<path d="M157.939 250.574L160.649 249.177L163.724 250.754L161.027 252.139L157.939 250.574Z" fill="#1F5E77"/>
<path d="M161.769 252.532L164.478 251.135L167.553 252.711L164.856 254.097L161.769 252.532Z" fill="#1F5E77"/>
<path d="M165.611 254.48L168.309 253.095L171.383 254.659L168.685 256.044L165.611 254.48Z" fill="#1F5E77"/>
<path d="M169.441 256.438L172.151 255.053L175.226 256.617L172.529 258.002L169.441 256.438Z" fill="#1F5E77"/>
<path d="M173.283 258.396L175.98 256.999L179.055 258.576L176.358 259.961L173.283 258.396Z" fill="#1F5E77"/>
<path d="M177.114 260.344L179.823 258.959L182.898 260.523L180.201 261.908L177.114 260.344Z" fill="#1F5E77"/>
<path d="M180.943 262.301L183.653 260.916L186.728 262.48L184.031 263.866L180.943 262.301Z" fill="#1F5E77"/>
<path d="M184.785 264.26L187.483 262.862L190.556 264.439L187.86 265.824L184.785 264.26Z" fill="#1F5E77"/>
<path d="M191.325 264.821L194.4 266.397L191.703 267.782L188.616 266.218L191.325 264.821Z" fill="#1F5E77"/>
<path d="M142.176 246.11L139.102 244.545L141.812 243.16L144.873 244.736L142.176 246.11Z" fill="#1F5E77"/>
<path d="M148.716 246.682L146.02 248.067L142.931 246.502L145.642 245.117L148.716 246.682Z" fill="#1F5E77"/>
<path d="M152.545 248.641L149.849 250.026L146.774 248.462L149.471 247.064L152.545 248.641Z" fill="#1F5E77"/>
<path d="M156.389 250.599L153.692 251.985L150.604 250.408L153.314 249.023L156.389 250.599Z" fill="#1F5E77"/>
<path d="M160.218 252.545L157.522 253.93L154.434 252.365L157.144 250.98L160.218 252.545Z" fill="#1F5E77"/>
<path d="M164.047 254.504L161.351 255.889L158.276 254.325L160.973 252.939L164.047 254.504Z" fill="#1F5E77"/>
<path d="M167.891 256.461L165.194 257.846L162.105 256.281L164.816 254.885L167.891 256.461Z" fill="#1F5E77"/>
<path d="M171.72 258.408L169.023 259.806L165.949 258.23L168.645 256.844L171.72 258.408Z" fill="#1F5E77"/>
<path d="M175.563 260.367L172.865 261.752L169.778 260.188L172.489 258.803L175.563 260.367Z" fill="#1F5E77"/>
<path d="M179.393 262.325L176.696 263.71L173.607 262.147L176.318 260.749L179.393 262.325Z" fill="#1F5E77"/>
<path d="M183.222 264.285L180.525 265.67L177.45 264.094L180.147 262.708L183.222 264.285Z" fill="#1F5E77"/>
<path d="M187.065 266.23L184.368 267.616L181.28 266.051L183.991 264.666L187.065 266.23Z" fill="#1F5E77"/>
<path d="M187.82 266.612L190.895 268.188L188.198 269.574L185.109 268.01L187.82 266.612Z" fill="#1F5E77"/>
<path d="M138.683 247.912L135.596 246.348L138.306 244.951L141.381 246.527L138.683 247.912Z" fill="#1F5E77"/>
<path d="M145.211 248.485L142.514 249.871L139.439 248.306L142.136 246.908L145.211 248.485Z" fill="#1F5E77"/>
<path d="M143.268 250.253L145.979 248.868L149.053 250.432L146.356 251.817L143.268 250.253Z" fill="#1F5E77"/>
<path d="M152.883 252.39L150.185 253.776L147.098 252.211L149.808 250.814L152.883 252.39Z" fill="#1F5E77"/>
<path d="M156.712 254.349L154.016 255.734L150.941 254.169L153.638 252.772L156.712 254.349Z" fill="#1F5E77"/>
<path d="M160.555 256.295L157.858 257.68L154.77 256.116L157.481 254.731L160.555 256.295Z" fill="#1F5E77"/>
<path d="M164.385 258.253L161.688 259.639L158.614 258.074L161.31 256.688L164.385 258.253Z" fill="#1F5E77"/>
<path d="M168.227 260.213L165.531 261.598L162.443 260.033L165.154 258.636L168.227 260.213Z" fill="#1F5E77"/>
<path d="M172.057 262.158L169.36 263.544L166.272 261.979L168.983 260.594L172.057 262.158Z" fill="#1F5E77"/>
<path d="M175.887 264.116L173.19 265.502L170.116 263.938L172.812 262.552L175.887 264.116Z" fill="#1F5E77"/>
<path d="M179.729 266.075L177.033 267.46L173.945 265.896L176.656 264.499L179.729 266.075Z" fill="#1F5E77"/>
<path d="M177.788 267.842L180.485 266.457L183.559 268.033L180.861 269.419L177.788 267.842Z" fill="#1F5E77"/>
<path d="M184.327 268.416L187.402 269.981L184.705 271.366L181.617 269.801L184.327 268.416Z" fill="#1F5E77"/>
<path d="M135.178 249.702L132.103 248.139L134.801 246.753L137.875 248.317L135.178 249.702Z" fill="#1F5E77"/>
<path d="M135.933 250.097L138.643 248.699L141.717 250.276L139.021 251.661L135.933 250.097Z" fill="#1F5E77"/>
<path d="M139.776 252.056L142.474 250.658L145.547 252.234L142.85 253.619L139.776 252.056Z" fill="#1F5E77"/>
<path d="M143.606 254.003L146.303 252.617L149.377 254.182L146.679 255.568L143.606 254.003Z" fill="#1F5E77"/>
<path d="M147.435 255.96L150.145 254.575L153.219 256.14L150.523 257.525L147.435 255.96Z" fill="#1F5E77"/>
<path d="M151.277 257.919L153.975 256.521L157.048 258.098L154.352 259.484L151.277 257.919Z" fill="#1F5E77"/>
<path d="M155.108 259.865L157.817 258.48L160.892 260.044L158.195 261.441L155.108 259.865Z" fill="#1F5E77"/>
<path d="M158.937 261.823L161.647 260.438L164.721 262.002L162.025 263.387L158.937 261.823Z" fill="#1F5E77"/>
<path d="M162.779 263.782L165.477 262.385L168.551 263.961L165.854 265.347L162.779 263.782Z" fill="#1F5E77"/>
<path d="M166.61 265.74L169.319 264.344L172.394 265.92L169.697 267.305L166.61 265.74Z" fill="#1F5E77"/>
<path d="M170.452 267.687L173.149 266.302L176.223 267.866L173.527 269.251L170.452 267.687Z" fill="#1F5E77"/>
<path d="M174.281 269.647L176.992 268.249L180.066 269.826L177.37 271.211L174.281 269.647Z" fill="#1F5E77"/>
<path d="M180.821 270.207L183.896 271.783L181.199 273.168L178.112 271.604L180.821 270.207Z" fill="#1F5E77"/>
<path d="M131.686 251.507L128.597 249.931L131.308 248.546L134.383 250.122L131.686 251.507Z" fill="#1F5E77"/>
<path d="M132.441 251.888L135.137 250.503L138.212 252.067L135.515 253.452L132.441 251.888Z" fill="#1F5E77"/>
<path d="M136.27 253.847L138.967 252.461L142.041 254.025L139.358 255.411L136.27 253.847Z" fill="#1F5E77"/>
<path d="M140.099 255.806L142.81 254.409L145.885 255.985L143.188 257.37L140.099 255.806Z" fill="#1F5E77"/>
<path d="M143.942 257.752L146.639 256.367L149.713 257.932L147.017 259.317L143.942 257.752Z" fill="#1F5E77"/>
<path d="M147.772 259.711L150.483 258.326L153.557 259.89L150.861 261.276L147.772 259.711Z" fill="#1F5E77"/>
<path d="M151.615 261.669L154.312 260.272L157.386 261.848L154.689 263.234L151.615 261.669Z" fill="#1F5E77"/>
<path d="M155.444 263.616L158.141 262.23L161.215 263.807L158.519 265.18L155.444 263.616Z" fill="#1F5E77"/>
<path d="M159.274 265.574L161.984 264.189L165.059 265.754L162.362 267.139L159.274 265.574Z" fill="#1F5E77"/>
<path d="M163.117 267.531L165.814 266.135L168.888 267.711L166.191 269.096L163.117 267.531Z" fill="#1F5E77"/>
<path d="M166.946 269.48L169.657 268.094L172.732 269.671L170.034 271.056L166.946 269.48Z" fill="#1F5E77"/>
<path d="M170.776 271.438L173.486 270.053L176.561 271.617L173.864 273.002L170.776 271.438Z" fill="#1F5E77"/>
<path d="M177.315 272.011L180.39 273.575L177.693 274.96L174.619 273.397L177.315 272.011Z" fill="#1F5E77"/>
<path d="M127.802 250.336L130.877 251.912L128.18 253.297L125.106 251.733L127.802 250.336Z" fill="#1F5E77"/>
<path d="M134.719 253.871L132.023 255.257L128.935 253.692L131.646 252.295L134.719 253.871Z" fill="#1F5E77"/>
<path d="M138.55 255.818L135.852 257.203L132.764 255.638L135.475 254.253L138.55 255.818Z" fill="#1F5E77"/>
<path d="M142.379 257.775L139.682 259.16L136.608 257.596L139.304 256.211L142.379 257.775Z" fill="#1F5E77"/>
<path d="M146.221 259.735L143.525 261.12L140.437 259.556L143.148 258.158L146.221 259.735Z" fill="#1F5E77"/>
<path d="M150.051 261.682L147.354 263.067L144.28 261.502L146.977 260.117L150.051 261.682Z" fill="#1F5E77"/>
<path d="M150.806 262.074L154.649 264.021L155.404 264.415L158.479 265.98L160.043 266.779L162.321 267.938L164.735 269.169L169.226 271.461L166.528 272.846L161.836 270.458L159.611 269.324L157.278 268.129L155.782 267.376V267.365L152.748 265.825L151.939 265.418L148.109 263.46L150.806 262.074Z" fill="#1F5E77"/>
<path d="M173.055 273.419L170.358 274.804L167.284 273.24L169.981 271.843L173.055 273.419Z" fill="#1F5E77"/>
<path d="M176.897 275.366L174.201 276.752L171.113 275.188L173.824 273.802L176.897 275.366Z" fill="#1F5E77"/>
<path d="M196.287 270.123L198.985 268.727L202.06 270.303L199.362 271.688L196.287 270.123Z" fill="#1F5E77"/>
<path d="M200.118 272.071L202.828 270.686L205.902 272.25L203.205 273.635L200.118 272.071Z" fill="#1F5E77"/>
<path d="M203.961 274.029L206.657 272.643L209.732 274.207L207.035 275.593L203.961 274.029Z" fill="#1F5E77"/>
<path d="M198.567 272.094L195.871 273.479L192.782 271.914L195.493 270.529L198.567 272.094Z" fill="#1F5E77"/>
<path d="M202.396 274.052L199.7 275.438L196.625 273.873L199.322 272.476L202.396 274.052Z" fill="#1F5E77"/>
<path d="M206.24 276.012L203.542 277.385L200.455 275.821L203.165 274.436L206.24 276.012Z" fill="#1F5E77"/>
<path d="M195.062 273.885L192.365 275.27L189.291 273.705L191.987 272.32L195.062 273.885Z" fill="#1F5E77"/>
<path d="M198.904 275.844L196.207 277.229L193.12 275.664L195.829 274.279L198.904 275.844Z" fill="#1F5E77"/>
<path d="M202.734 277.802L200.036 279.187L196.948 277.622L199.659 276.226L202.734 277.802Z" fill="#1F5E77"/>
<path d="M185.784 275.509L188.494 274.111L191.569 275.688L188.872 277.073L185.784 275.509Z" fill="#1F5E77"/>
<path d="M189.627 277.455L192.324 276.07L195.398 277.646L192.701 279.031L189.627 277.455Z" fill="#1F5E77"/>
<path d="M193.456 279.414L196.167 278.028L199.228 279.593L196.531 280.978L193.456 279.414Z" fill="#1F5E77"/>
<path d="M182.292 277.301L184.989 275.916L188.063 277.48L185.366 278.866L182.292 277.301Z" fill="#1F5E77"/>
<path d="M186.121 279.26L188.832 277.862L191.892 279.438L189.208 280.824L186.121 279.26Z" fill="#1F5E77"/>
<path d="M189.95 281.217L192.661 279.82L195.735 281.396L193.039 282.781L189.95 281.217Z" fill="#1F5E77"/>
<path d="M184.57 279.283L181.874 280.669L178.786 279.092L181.496 277.707L184.57 279.283Z" fill="#1F5E77"/>
<path d="M188.4 281.229L185.703 282.615L182.615 281.05L185.326 279.665L188.4 281.229Z" fill="#1F5E77"/>
<path d="M169.171 232.364L190.423 221.437C190.865 221.211 191.367 221.092 191.879 221.092C192.39 221.092 192.892 221.211 193.335 221.437L243.765 247.232C243.944 247.342 244.089 247.489 244.189 247.659C244.29 247.829 244.342 248.018 244.342 248.211C244.342 248.403 244.29 248.593 244.189 248.763C244.089 248.934 243.944 249.08 243.765 249.19L222.932 259.854C222.406 260.124 221.808 260.266 221.199 260.266C220.592 260.266 219.994 260.124 219.468 259.854L169.184 234.095C169.017 234.006 168.877 233.879 168.78 233.729C168.684 233.578 168.631 233.407 168.63 233.233C168.629 233.06 168.678 232.889 168.773 232.736C168.868 232.584 169.005 232.456 169.171 232.364Z" fill="#1F5E77"/>
<path d="M169.184 234.096L219.521 259.831C220.048 260.1 220.645 260.242 221.253 260.242C221.862 260.242 222.459 260.1 222.986 259.831L243.765 249.143C243.959 249.044 244.12 248.901 244.231 248.729C244.342 248.557 244.4 248.362 244.399 248.163V250.445C244.395 250.638 244.336 250.829 244.224 250.996C244.113 251.164 243.955 251.303 243.765 251.4L222.932 262.148C222.406 262.417 221.808 262.559 221.199 262.559C220.591 262.559 219.993 262.417 219.467 262.148L169.131 236.413C168.952 236.326 168.804 236.199 168.703 236.042C168.6 235.887 168.548 235.71 168.551 235.529V233.248C168.56 233.427 168.624 233.6 168.735 233.75C168.848 233.899 169.002 234.019 169.184 234.096Z" fill="#07304B"/>
<path d="M169.184 234.096L219.521 259.831C220.003 260.073 220.543 260.213 221.099 260.237V262.53C220.543 262.506 220.003 262.367 219.521 262.124L169.184 236.389C169.007 236.303 168.858 236.174 168.756 236.018C168.654 235.863 168.601 235.685 168.605 235.505V233.225C168.604 233.402 168.658 233.577 168.759 233.731C168.862 233.885 169.009 234.01 169.184 234.096Z" fill="#0B3B56"/>
<path d="M224.308 234.073L185.109 213.987V231.182L224.308 251.257V234.073Z" fill="#0F4463"/>
<path d="M190.571 211.215L185.109 213.986L224.308 234.073L229.77 231.29L190.571 211.215Z" fill="#07304B"/>
<path d="M229.77 231.291L224.308 234.073V251.257L229.77 248.439V231.291Z" fill="#07304B"/>
<path d="M145.506 126.476L264.625 187.666V265.299L145.506 203.871V126.476Z" fill="url(#paint0_linear_669_3743)"/>
<path d="M264.625 187.667L268.59 185.541V263.175L264.625 265.301V187.667Z" fill="#07304B"/>
<path d="M145.506 126.476L149.565 124.398L268.59 185.54L264.625 187.666L145.506 126.476Z" fill="#1F5E77"/>
<path d="M145.506 126.488V203.871L264.625 265.3V187.678L145.506 126.488ZM261.807 260.965L148.338 202.451V130.799L261.807 189.087V260.965Z" fill="#0B3B56"/>
<path d="M160.326 142.61V144.663L170.088 149.655V147.589L160.326 142.61Z" fill="#F5D012"/>
<path d="M160.326 146.371V148.425L170.088 153.417V151.351L160.326 146.371Z" fill="#EDF0F8"/>
<path d="M160.326 150.133V152.187L170.088 157.179V155.113L160.326 150.133Z" fill="#EDF0F8"/>
<path d="M234.03 193.589V191.535L173.756 160.749V162.803L234.03 193.589Z" fill="#EDF0F8"/>
<path d="M160.326 153.883V155.949L170.088 160.928V158.874L160.326 153.883Z" fill="#EDF0F8"/>
<path d="M160.326 157.646V159.712L170.088 164.691V162.637L160.326 157.646Z" fill="#EDF0F8"/>
<path d="M234.03 197.352V195.298L173.756 164.512V166.566L234.03 197.352Z" fill="#50E85E"/>
<path d="M160.326 168.93V170.996L170.088 175.976V173.921L160.326 168.93Z" fill="#EDF0F8"/>
<path d="M160.326 172.691V174.744L170.088 179.737V177.682L160.326 172.691Z" fill="#F5D012"/>
<path d="M160.326 187.738V189.792L170.088 194.783V192.717L160.326 187.738Z" fill="#EDF0F8"/>
<path d="M160.326 191.499V193.554L170.088 198.545V196.479L160.326 191.499Z" fill="#EDF0F8"/>
<path d="M211.781 217.783L173.757 198.354V200.407L211.781 219.837V217.783Z" fill="#50E85E"/>
<path d="M213.778 218.798V220.864L234.03 231.194V229.14L213.778 218.798Z" fill="#EDF0F8"/>
<path d="M192.863 204.349L173.756 194.593V196.659L192.863 206.415V204.349Z" fill="#EDF0F8"/>
<path d="M194.859 205.376V207.43L234.03 227.445V225.379L194.859 205.376Z" fill="#EDF0F8"/>
<path d="M228.878 211.466V213.532L234.03 216.16V214.094L228.878 211.466Z" fill="#EDF0F8"/>
<path d="M200.832 193.385L173.756 179.545V181.611L200.832 195.44V193.385Z" fill="#ED5561"/>
<path d="M189.734 157.632L173.756 149.465V151.531L189.734 159.687V157.632Z" fill="#EDF0F8"/>
<path d="M215.935 171.02L191.744 158.649V160.715L215.935 173.074V171.02Z" fill="#EDF0F8"/>
<path d="M201.843 167.568L184.8 158.864V160.929L201.843 169.634V167.568Z" fill="#EDF0F8"/>
<path d="M219.709 176.704L203.839 168.595V170.649L219.709 178.757V176.704Z" fill="#ED5561"/>
<path d="M221.719 177.732V179.785L234.03 186.067V184.013L221.719 177.732Z" fill="#EDF0F8"/>
<path d="M176.897 158.6V160.654L189.734 167.21V165.155L176.897 158.6Z" fill="#ED5561"/>
<path d="M229 185.207L191.744 166.172V168.238L229 187.273V185.207Z" fill="#EDF0F8"/>
<path d="M207.668 185.588L183.316 173.157V175.211L207.668 187.654V185.588Z" fill="#EDF0F8"/>
<path d="M229 196.491L209.677 186.615V188.681L229 198.546V196.491Z" fill="#EDF0F8"/>
<path d="M226.87 206.677L202.842 194.413V196.468L226.87 208.743V206.677Z" fill="#EDF0F8"/>
<path d="M213.777 203.764V205.818L226.87 212.505V210.439L213.777 203.764Z" fill="#50E85E"/>
<path d="M178.462 185.721L173.756 183.309V185.375L178.462 187.775V185.721Z" fill="#EDF0F8"/>
<path d="M187.294 190.234V192.288L211.781 204.791V202.737L187.294 190.234Z" fill="#EDF0F8"/>
<path d="M185.284 189.207L180.471 186.746V188.801L185.284 191.26V189.207Z" fill="#EDF0F8"/>
<path d="M207.25 204.182L180.471 190.508V192.562L207.25 206.236V204.182Z" fill="#EDF0F8"/>
<path d="M238.264 182.448V183.01L240.947 184.383V183.822L238.264 182.448Z" fill="#EDF0F8"/>
<path d="M238.264 183.475V184.048L240.948 185.421V184.848L238.264 183.475Z" fill="#EDF0F8"/>
<path d="M238.264 184.514V185.087L240.948 186.46V185.887L238.264 184.514Z" fill="#EDF0F8"/>
<path d="M258.571 196.492V195.919L241.958 187.44V188.014L258.571 196.492Z" fill="#EDF0F8"/>
<path d="M238.264 185.553V186.114L240.948 187.488V186.926L238.264 185.553Z" fill="#EDF0F8"/>
<path d="M238.264 186.592V187.153L240.948 188.527V187.966L238.264 186.592Z" fill="#EDF0F8"/>
<path d="M258.571 197.531V196.958L241.958 188.48V189.041L258.571 197.531Z" fill="#EDF0F8"/>
<path d="M238.264 189.697V190.258L240.948 191.632V191.07L238.264 189.697Z" fill="#EDF0F8"/>
<path d="M238.264 190.736V191.298L240.948 192.67V192.109L238.264 190.736Z" fill="#EDF0F8"/>
<path d="M238.264 194.88V195.441L240.948 196.815V196.254L238.264 194.88Z" fill="#EDF0F8"/>
<path d="M238.264 195.919V196.481L240.948 197.854V197.293L238.264 195.919Z" fill="#EDF0F8"/>
<path d="M252.435 203.156L241.958 197.806V198.367L252.435 203.717V203.156Z" fill="#EDF0F8"/>
<path d="M252.988 203.443V204.004L258.571 206.858V206.285L252.988 203.443Z" fill="#EDF0F8"/>
<path d="M247.231 199.455L241.958 196.768V197.34L247.231 200.028V199.455Z" fill="#EDF0F8"/>
<path d="M247.769 199.741V200.303L258.571 205.82V205.247L247.769 199.741Z" fill="#EDF0F8"/>
<path d="M257.156 201.412V201.986L258.572 202.714V202.142L257.156 201.412Z" fill="#EDF0F8"/>
<path d="M249.428 196.432L241.958 192.623V193.196L249.428 197.006V196.432Z" fill="#EDF0F8"/>
<path d="M246.368 186.581L241.958 184.335V184.897L246.368 187.154V186.581Z" fill="#EDF0F8"/>
<path d="M253.582 190.27L246.92 186.866V187.428L253.582 190.843V190.27Z" fill="#EDF0F8"/>
<path d="M249.698 189.315L245.005 186.927V187.489L249.698 189.889V189.315Z" fill="#EDF0F8"/>
<path d="M254.62 191.836L250.251 189.602V190.176L254.62 192.409V191.836Z" fill="#EDF0F8"/>
<path d="M255.173 192.123V192.685L258.571 194.416V193.855L255.173 192.123Z" fill="#EDF0F8"/>
<path d="M242.835 186.843V187.417L246.368 189.22V188.658L242.835 186.843Z" fill="#EDF0F8"/>
<path d="M257.181 194.175L246.92 188.933V189.506L257.181 194.749V194.175Z" fill="#EDF0F8"/>
<path d="M251.302 194.284L244.601 190.856V191.43L251.302 194.857V194.284Z" fill="#EDF0F8"/>
<path d="M257.182 197.291L251.856 194.569V195.142L257.182 197.853V197.291Z" fill="#EDF0F8"/>
<path d="M256.602 200.098L249.981 196.719V197.279L256.602 200.659V200.098Z" fill="#EDF0F8"/>
<path d="M252.989 199.287V199.86L256.602 201.699V201.138L252.989 199.287Z" fill="#EDF0F8"/>
<path d="M243.266 194.319L241.958 193.662V194.224L243.266 194.892V194.319Z" fill="#EDF0F8"/>
<path d="M245.693 195.563V196.136L252.435 199.575V199.014L245.693 195.563Z" fill="#EDF0F8"/>
<path d="M245.141 195.288L243.805 194.607V195.168L245.141 195.849V195.288Z" fill="#EDF0F8"/>
<path d="M251.195 199.406L243.805 195.644V196.205L251.195 199.98V199.406Z" fill="#EDF0F8"/>
<path d="M238.264 199.979V200.54L240.948 201.913V201.351L238.264 199.979Z" fill="#EDF0F8"/>
<path d="M238.265 201.005V201.579L240.948 202.952V202.391L238.265 201.005Z" fill="#EDF0F8"/>
<path d="M238.264 202.044V202.617L240.948 203.991V203.417L238.264 202.044Z" fill="#EDF0F8"/>
<path d="M258.571 214.022V213.461L241.958 204.97V205.543L258.571 214.022Z" fill="#EDF0F8"/>
<path d="M238.264 203.084V203.657L240.948 205.031V204.458L238.264 203.084Z" fill="#EDF0F8"/>
<path d="M238.264 204.122V204.684L240.948 206.069V205.496L238.264 204.122Z" fill="#EDF0F8"/>
<path d="M258.571 215.06V214.499L241.958 206.008V206.581L258.571 215.06Z" fill="#EDF0F8"/>
<path d="M238.265 207.227V207.8L240.948 209.173V208.6L238.265 207.227Z" fill="#EDF0F8"/>
<path d="M238.265 208.265V208.838L240.948 210.211V209.638L238.265 208.265Z" fill="#EDF0F8"/>
<path d="M238.265 212.41V212.972L240.948 214.357V213.784L238.265 212.41Z" fill="#EDF0F8"/>
<path d="M238.265 213.449V214.011L240.948 215.384V214.823L238.265 213.449Z" fill="#EDF0F8"/>
<path d="M252.436 220.685L241.958 215.336V215.909L252.436 221.259V220.685Z" fill="#EDF0F8"/>
<path d="M252.989 220.973V221.533L258.571 224.388V223.827L252.989 220.973Z" fill="#EDF0F8"/>
<path d="M247.231 216.997L241.958 214.298V214.871L247.231 217.558V216.997Z" fill="#EDF0F8"/>
<path d="M247.77 217.271V217.845L258.571 223.349V222.788L247.77 217.271Z" fill="#EDF0F8"/>
<path d="M257.156 218.954V219.516L258.572 220.244V219.671L257.156 218.954Z" fill="#EDF0F8"/>
<path d="M249.429 213.963L241.958 210.154V210.727L249.429 214.536V213.963Z" fill="#EDF0F8"/>
<path d="M246.368 204.11L241.958 201.865V202.427L246.368 204.684V204.11Z" fill="#EDF0F8"/>
<path d="M253.582 207.8L246.92 204.397V204.97L253.582 208.373V207.8Z" fill="#EDF0F8"/>
<path d="M249.699 206.857L245.006 204.458V205.03L249.699 207.419V206.857Z" fill="#EDF0F8"/>
<path d="M254.62 209.365L250.252 207.132V207.705L254.62 209.938V209.365Z" fill="#EDF0F8"/>
<path d="M255.173 209.652V210.226L258.571 211.957V211.384L255.173 209.652Z" fill="#EDF0F8"/>
<path d="M242.835 204.385V204.946L246.368 206.75V206.188L242.835 204.385Z" fill="#EDF0F8"/>
<path d="M257.182 211.717L246.92 206.475V207.036L257.182 212.278V211.717Z" fill="#EDF0F8"/>
<path d="M251.303 211.825L244.602 208.397V208.958L251.303 212.386V211.825Z" fill="#EDF0F8"/>
<path d="M257.182 214.822L251.856 212.099V212.673L257.182 215.396V214.822Z" fill="#EDF0F8"/>
<path d="M256.602 217.628L249.982 214.248V214.81L256.602 218.201V217.628Z" fill="#EDF0F8"/>
<path d="M252.989 216.828V217.39L256.602 219.241V218.668L252.989 216.828Z" fill="#EDF0F8"/>
<path d="M243.266 211.861L241.958 211.192V211.753L243.266 212.422V211.861Z" fill="#EDF0F8"/>
<path d="M245.694 213.104V213.665L252.435 217.116V216.543L245.694 213.104Z" fill="#EDF0F8"/>
<path d="M245.141 212.817L243.806 212.137V212.71L245.141 213.391V212.817Z" fill="#EDF0F8"/>
<path d="M251.195 216.936L243.806 213.174V213.747L251.195 217.509V216.936Z" fill="#EDF0F8"/>
<path d="M238.264 217.509V218.082L240.948 219.455V218.883L238.264 217.509Z" fill="#EDF0F8"/>
<path d="M238.264 218.547V219.108L240.948 220.482V219.921L238.264 218.547Z" fill="#EDF0F8"/>
<path d="M238.264 219.586V220.148L240.948 221.521V220.96L238.264 219.586Z" fill="#EDF0F8"/>
<path d="M258.572 231.564V230.99L241.959 222.512V223.073L258.572 231.564Z" fill="#EDF0F8"/>
<path d="M238.264 220.614V221.186L240.948 222.56V221.999L238.264 220.614Z" fill="#EDF0F8"/>
<path d="M238.264 221.653V222.226L240.948 223.599V223.026L238.264 221.653Z" fill="#EDF0F8"/>
<path d="M258.572 232.59V232.029L241.959 223.538V224.112L258.572 232.59Z" fill="#EDF0F8"/>
<path d="M238.264 224.77V225.331L240.948 226.704V226.143L238.264 224.77Z" fill="#EDF0F8"/>
<path d="M238.264 225.797V226.37L240.948 227.743V227.169L238.264 225.797Z" fill="#EDF0F8"/>
<path d="M238.264 229.94V230.513L240.948 231.886V231.313L238.264 229.94Z" fill="#EDF0F8"/>
<path d="M238.264 230.98V231.553L240.948 232.926V232.353L238.264 230.98Z" fill="#EDF0F8"/>
<path d="M252.436 238.227L241.959 232.865V233.438L252.436 238.789V238.227Z" fill="#EDF0F8"/>
<path d="M252.989 238.502V239.075L258.571 241.918V241.356L252.989 238.502Z" fill="#EDF0F8"/>
<path d="M247.231 234.525L241.959 231.838V232.399L247.231 235.087V234.525Z" fill="#EDF0F8"/>
<path d="M247.77 234.8V235.373L258.571 240.89V240.317L247.77 234.8Z" fill="#EDF0F8"/>
<path d="M257.156 236.485V237.045L258.572 237.774V237.213L257.156 236.485Z" fill="#EDF0F8"/>
<path d="M249.429 231.505L241.959 227.684V228.257L249.429 232.067V231.505Z" fill="#EDF0F8"/>
<path d="M246.368 221.653L241.959 219.396V219.97L246.368 222.214V221.653Z" fill="#EDF0F8"/>
<path d="M253.582 225.331L246.92 221.927V222.5L253.582 225.904V225.331Z" fill="#EDF0F8"/>
<path d="M249.699 224.388L245.006 221.988V222.56L249.699 224.961V224.388Z" fill="#EDF0F8"/>
<path d="M254.62 226.908L250.252 224.675V225.236L254.62 227.469V226.908Z" fill="#EDF0F8"/>
<path d="M255.173 227.183V227.756L258.571 229.487V228.914L255.173 227.183Z" fill="#EDF0F8"/>
<path d="M242.835 221.915V222.488L246.368 224.292V223.718L242.835 221.915Z" fill="#EDF0F8"/>
<path d="M257.182 229.249L246.92 224.005V224.567L257.182 229.81V229.249Z" fill="#EDF0F8"/>
<path d="M251.303 229.355L244.602 225.928V226.489L251.303 229.916V229.355Z" fill="#EDF0F8"/>
<path d="M257.182 232.353L251.856 229.642V230.203L257.182 232.926V232.353Z" fill="#EDF0F8"/>
<path d="M256.602 235.171L249.982 231.779V232.352L256.602 235.732V235.171Z" fill="#EDF0F8"/>
<path d="M252.989 234.36V234.933L256.603 236.772V236.198L252.989 234.36Z" fill="#EDF0F8"/>
<path d="M243.267 229.391L241.959 228.723V229.296L243.267 229.953V229.391Z" fill="#EDF0F8"/>
<path d="M245.694 230.632V231.193L252.435 234.645V234.072L245.694 230.632Z" fill="#EDF0F8"/>
<path d="M245.141 230.346L243.806 229.665V230.238L245.141 230.919V230.346Z" fill="#EDF0F8"/>
<path d="M251.195 234.479L243.806 230.704V231.277L251.195 235.039V234.479Z" fill="#EDF0F8"/>
<path d="M238.264 235.039V235.613L240.948 236.987V236.413L238.264 235.039Z" fill="#EDF0F8"/>
<path d="M238.264 236.078V236.651L240.948 238.025V237.451L238.264 236.078Z" fill="#EDF0F8"/>
<path d="M238.264 237.118V237.68L240.948 239.065V238.492L238.264 237.118Z" fill="#EDF0F8"/>
<path d="M258.572 249.096V248.523L241.959 240.044V240.606L258.572 249.096Z" fill="#EDF0F8"/>
<path d="M238.264 238.156V238.718L240.948 240.091V239.53L238.264 238.156Z" fill="#EDF0F8"/>
<path d="M238.264 239.184V239.757L240.948 241.13V240.557L238.264 239.184Z" fill="#EDF0F8"/>
<path d="M258.572 250.134V249.561L241.959 241.082V241.644L258.572 250.134Z" fill="#EDF0F8"/>
<path d="M238.264 242.3V242.861L240.948 244.235V243.674L238.264 242.3Z" fill="#EDF0F8"/>
<path d="M238.264 243.327V243.9L240.948 245.274V244.712L238.264 243.327Z" fill="#EDF0F8"/>
<path d="M257.156 254.015V254.588L258.572 255.304V254.743L257.156 254.015Z" fill="#EDF0F8"/>
<path d="M249.429 249.035L241.959 245.227V245.787L249.429 249.597V249.035Z" fill="#EDF0F8"/>
<path d="M246.368 239.184L241.959 236.939V237.5L246.368 239.745V239.184Z" fill="#EDF0F8"/>
<path d="M253.582 242.873L246.92 239.47V240.032L253.582 243.434V242.873Z" fill="#EDF0F8"/>
<path d="M249.699 241.917L245.006 239.529V240.091L249.699 242.49V241.917Z" fill="#EDF0F8"/>
<path d="M254.62 244.438L250.252 242.205V242.767L254.62 245.012V244.438Z" fill="#EDF0F8"/>
<path d="M255.173 244.727V245.287L258.571 247.019V246.458L255.173 244.727Z" fill="#EDF0F8"/>
<path d="M242.835 239.446V240.018L246.368 241.822V241.261L242.835 239.446Z" fill="#EDF0F8"/>
<path d="M257.182 246.779L246.92 241.536V242.109L257.182 247.351V246.779Z" fill="#EDF0F8"/>
<path d="M251.303 246.886L244.602 243.458V244.031L251.303 247.459V246.886Z" fill="#EDF0F8"/>
<path d="M257.182 249.897L251.856 247.174V247.735L257.182 250.457V249.897Z" fill="#EDF0F8"/>
<path d="M256.602 252.702L249.982 249.323V249.884L256.602 253.264V252.702Z" fill="#EDF0F8"/>
<path d="M252.989 251.89V252.463L256.602 254.302V253.741L252.989 251.89Z" fill="#EDF0F8"/>
<path d="M243.267 246.923L241.959 246.266V246.827L243.267 247.496V246.923Z" fill="#EDF0F8"/>
<path d="M245.694 248.164V248.738L252.435 252.177V251.615L245.694 248.164Z" fill="#EDF0F8"/>
<path d="M245.141 247.877L243.806 247.208V247.77L245.141 248.45V247.877Z" fill="#EDF0F8"/>
<path d="M251.195 252.009L243.806 248.247V248.809L251.195 252.582V252.009Z" fill="#EDF0F8"/>
<path d="M154.084 139.409L150.861 137.773C150.825 137.753 150.785 137.742 150.744 137.742C150.702 137.742 150.661 137.751 150.625 137.77C150.589 137.788 150.558 137.815 150.539 137.847C150.518 137.878 150.508 137.915 150.511 137.952V141.356C150.509 141.437 150.532 141.518 150.577 141.589C150.622 141.66 150.687 141.719 150.766 141.762L153.989 143.409C154.025 143.428 154.066 143.438 154.109 143.438C154.15 143.439 154.192 143.429 154.229 143.411C154.265 143.394 154.296 143.367 154.318 143.336C154.34 143.304 154.352 143.267 154.353 143.231V139.827C154.351 139.743 154.325 139.661 154.277 139.589C154.23 139.515 154.163 139.454 154.084 139.409Z" fill="#50E85E"/>
<path d="M154.083 144.531L150.86 142.884C150.824 142.863 150.784 142.853 150.743 142.853C150.701 142.852 150.66 142.862 150.624 142.88C150.588 142.898 150.557 142.925 150.538 142.957C150.517 142.989 150.507 143.025 150.51 143.062V146.478C150.507 146.558 150.53 146.637 150.576 146.706C150.621 146.776 150.686 146.833 150.766 146.872L153.988 148.52C154.024 148.539 154.065 148.548 154.108 148.548C154.149 148.549 154.191 148.54 154.228 148.521C154.264 148.504 154.295 148.478 154.317 148.446C154.339 148.414 154.351 148.378 154.352 148.341V144.937C154.351 144.855 154.325 144.774 154.278 144.703C154.231 144.631 154.163 144.573 154.083 144.531Z" fill="#50E85E"/>
<path d="M154.083 149.62L150.861 147.972C150.825 147.956 150.784 147.949 150.744 147.95C150.705 147.951 150.666 147.96 150.631 147.978C150.596 147.996 150.567 148.021 150.546 148.051C150.524 148.081 150.512 148.115 150.51 148.151V151.567C150.509 151.648 150.532 151.729 150.576 151.8C150.621 151.871 150.686 151.93 150.766 151.973L153.989 153.62C154.026 153.639 154.068 153.649 154.112 153.649C154.154 153.649 154.197 153.638 154.234 153.619C154.271 153.6 154.301 153.572 154.322 153.538C154.344 153.505 154.353 153.468 154.352 153.429V150.038C154.353 149.953 154.329 149.87 154.282 149.797C154.235 149.723 154.166 149.662 154.083 149.62Z" fill="#50E85E"/>
<path d="M154.083 154.719L150.86 153.083C150.824 153.064 150.784 153.053 150.743 153.052C150.701 153.051 150.66 153.061 150.624 153.079C150.588 153.097 150.557 153.124 150.538 153.156C150.517 153.189 150.507 153.226 150.51 153.262V156.665C150.508 156.747 150.531 156.827 150.576 156.899C150.621 156.97 150.686 157.03 150.766 157.071L153.988 158.72C154.025 158.739 154.068 158.749 154.111 158.749C154.154 158.749 154.196 158.738 154.233 158.719C154.27 158.699 154.301 158.671 154.321 158.638C154.343 158.604 154.353 158.566 154.352 158.529V155.137C154.351 155.052 154.325 154.97 154.278 154.897C154.231 154.825 154.163 154.763 154.083 154.719Z" fill="#50E85E"/>
<path d="M154.083 159.817L150.86 158.181C150.824 158.162 150.784 158.151 150.743 158.15C150.701 158.149 150.66 158.159 150.624 158.177C150.588 158.196 150.557 158.223 150.538 158.255C150.517 158.287 150.507 158.323 150.51 158.361V161.776C150.511 161.855 150.535 161.933 150.579 162.002C150.624 162.071 150.688 162.129 150.766 162.17L153.988 163.818C154.024 163.836 154.065 163.846 154.108 163.847C154.149 163.847 154.191 163.837 154.228 163.82C154.264 163.802 154.295 163.776 154.317 163.744C154.339 163.712 154.351 163.675 154.352 163.639V160.235C154.35 160.151 154.324 160.069 154.276 159.997C154.229 159.923 154.162 159.862 154.083 159.817Z" fill="#50E85E"/>
<path d="M154.083 164.928L150.86 163.28C150.824 163.26 150.784 163.249 150.743 163.249C150.701 163.248 150.66 163.258 150.624 163.276C150.588 163.295 150.557 163.321 150.538 163.354C150.517 163.385 150.507 163.422 150.51 163.459V166.874C150.508 166.956 150.531 167.036 150.576 167.107C150.621 167.179 150.686 167.239 150.766 167.28L153.988 168.928C154.025 168.948 154.068 168.957 154.111 168.957C154.154 168.956 154.196 168.947 154.233 168.927C154.27 168.907 154.301 168.88 154.321 168.846C154.343 168.813 154.353 168.775 154.352 168.737V165.345C154.353 165.261 154.329 165.177 154.281 165.104C154.234 165.031 154.166 164.97 154.083 164.928Z" fill="#50E85E"/>
<path d="M154.083 170.028L150.861 168.415C150.825 168.4 150.784 168.392 150.744 168.393C150.705 168.394 150.666 168.404 150.631 168.422C150.596 168.439 150.567 168.464 150.546 168.494C150.524 168.525 150.512 168.559 150.51 168.594V171.998C150.509 172.079 150.532 172.16 150.576 172.232C150.621 172.303 150.686 172.362 150.766 172.404L153.989 174.052C154.026 174.071 154.068 174.081 154.112 174.081C154.154 174.081 154.197 174.07 154.234 174.051C154.271 174.032 154.301 174.004 154.322 173.97C154.344 173.937 154.353 173.899 154.352 173.861V170.445C154.353 170.361 154.329 170.278 154.282 170.204C154.235 170.131 154.166 170.07 154.083 170.028Z" fill="#50E85E"/>
<path d="M154.083 175.126L150.86 173.489C150.824 173.47 150.784 173.459 150.743 173.458C150.701 173.458 150.66 173.467 150.624 173.486C150.588 173.505 150.557 173.531 150.538 173.563C150.517 173.595 150.507 173.632 150.51 173.669V177.072C150.508 177.153 150.531 177.234 150.576 177.306C150.621 177.377 150.686 177.436 150.766 177.478L153.988 179.126C154.024 179.145 154.065 179.155 154.108 179.155C154.149 179.155 154.191 179.146 154.228 179.128C154.264 179.109 154.295 179.083 154.317 179.052C154.339 179.021 154.351 178.984 154.352 178.947V175.579C154.356 175.49 154.333 175.4 154.285 175.321C154.239 175.241 154.169 175.173 154.083 175.126Z" fill="#50E85E"/>
<path d="M154.083 180.238L150.86 178.59C150.824 178.57 150.784 178.56 150.743 178.559C150.701 178.558 150.66 178.568 150.624 178.586C150.588 178.604 150.557 178.631 150.538 178.663C150.517 178.696 150.507 178.733 150.51 178.769V182.185C150.507 182.265 150.53 182.344 150.576 182.413C150.621 182.483 150.686 182.539 150.766 182.578L153.988 184.226C154.024 184.245 154.065 184.255 154.108 184.255C154.149 184.255 154.191 184.247 154.228 184.228C154.264 184.21 154.295 184.184 154.317 184.152C154.339 184.12 154.351 184.085 154.352 184.047V180.644C154.351 180.561 154.325 180.48 154.278 180.409C154.231 180.338 154.163 180.279 154.083 180.238Z" fill="#50E85E"/>
<path d="M154.083 185.336L150.86 183.689C150.824 183.672 150.784 183.664 150.744 183.665C150.705 183.667 150.665 183.677 150.63 183.694C150.596 183.713 150.566 183.738 150.546 183.768C150.524 183.798 150.512 183.832 150.51 183.868V187.283C150.508 187.364 150.531 187.445 150.576 187.516C150.621 187.587 150.686 187.647 150.765 187.688L153.988 189.337C154.025 189.356 154.068 189.366 154.111 189.366C154.154 189.366 154.196 189.355 154.233 189.336C154.27 189.317 154.301 189.289 154.321 189.255C154.343 189.222 154.353 189.184 154.352 189.146V185.755C154.353 185.67 154.329 185.587 154.281 185.513C154.234 185.439 154.166 185.378 154.083 185.336Z" fill="#50E85E"/>
<path d="M154.083 190.437L150.861 188.789C150.824 188.773 150.782 188.765 150.741 188.767C150.701 188.768 150.66 188.78 150.625 188.798C150.591 188.817 150.561 188.844 150.541 188.876C150.521 188.908 150.51 188.944 150.51 188.98V192.383C150.509 192.465 150.532 192.545 150.576 192.617C150.621 192.688 150.686 192.748 150.766 192.789L153.989 194.438C154.026 194.457 154.068 194.467 154.112 194.467C154.154 194.466 154.197 194.456 154.234 194.437C154.271 194.416 154.301 194.388 154.322 194.356C154.344 194.322 154.353 194.284 154.352 194.247V190.854C154.351 190.77 154.325 190.688 154.278 190.615C154.231 190.542 154.164 190.481 154.083 190.437Z" fill="#50E85E"/>
<path d="M154.083 195.536L150.86 193.9C150.824 193.88 150.784 193.869 150.743 193.869C150.701 193.868 150.66 193.878 150.624 193.896C150.588 193.915 150.557 193.942 150.538 193.973C150.517 194.005 150.507 194.042 150.51 194.079V197.494C150.511 197.574 150.535 197.652 150.579 197.721C150.624 197.79 150.688 197.848 150.766 197.888L153.988 199.536C154.024 199.555 154.065 199.565 154.108 199.565C154.149 199.566 154.191 199.556 154.228 199.538C154.264 199.52 154.295 199.494 154.317 199.462C154.339 199.431 154.351 199.394 154.352 199.357V195.954C154.35 195.87 154.324 195.788 154.276 195.715C154.229 195.642 154.162 195.58 154.083 195.536Z" fill="#50E85E"/>
<path d="M129.514 378.951C121.424 379.01 124.121 373.613 124.121 373.613C112.201 370.389 106.349 372.18 106.349 372.18C103.355 381.494 104.555 387.131 104.448 389.364C104.448 390.475 105.324 391.155 106.497 391.538C112.902 393.651 118.741 395.12 130.674 394.033C139.466 393.269 148.769 386.068 146.653 378.664C145.331 374.066 137.658 378.879 129.514 378.951Z" fill="#933E31"/>
<path d="M126.076 312.088C123.716 309.378 119.685 307.061 112.996 308.625L41.1938 320.901L43.8906 337.225C47.4999 341.027 52.2908 343.805 57.6679 345.215C63.0451 346.625 68.7715 346.604 74.1355 345.155C85.4149 342.371 96.1305 338.035 105.891 332.305L103.463 377.398C103.463 377.398 114.736 380.491 124.755 375.129C126.44 374.233 128.005 330.778 128.517 319.624C128.689 318.287 128.562 316.934 128.143 315.64C127.725 314.348 127.022 313.14 126.076 312.088Z" fill="#1C75BC"/>
<path d="M163.979 391.98C155.633 392.051 158.371 386.438 158.371 386.438C146.005 383.107 139.924 384.958 139.911 384.958C136.823 394.63 138.063 400.482 137.956 402.799C137.956 403.993 138.858 404.661 140.086 405.056C146.734 407.253 152.788 408.71 165.18 407.647C174.308 406.858 183.963 399.372 181.765 391.693C180.404 386.951 172.434 391.907 163.979 391.98Z" fill="#9D4D36"/>
<path d="M82.3745 374.055L20.7522 342.505V350.183L82.3745 381.65V374.055Z" fill="#BBCEE1"/>
<path d="M76.7518 314L20.7524 342.506L82.3747 374.056L138.468 345.503L76.7518 314Z" fill="white"/>
<path d="M138.468 345.502L82.3743 374.055V381.649L138.468 352.917V345.502Z" fill="#A7BCCE"/>
<path d="M160.406 322.561C157.953 319.755 153.773 317.343 146.829 318.979L72.2749 331.721L75.0796 348.679C78.8179 352.637 83.7897 355.533 89.3746 357.004C94.9596 358.476 100.91 358.459 106.484 356.954C118.193 354.066 129.317 349.569 139.452 343.627L136.931 390.415C136.931 390.415 148.621 393.627 159.031 388.027C160.784 387.096 162.416 341.979 162.942 330.384C163.299 327.582 162.387 324.769 160.406 322.561Z" fill="#2A87C6"/>
<path d="M116.583 248.187C116.583 248.187 120.992 249.118 122.53 249.261C124.067 249.405 129.852 250.455 132.225 249.822C134.598 249.19 130.148 247.792 129.043 247.077C127.937 246.36 128.005 244.532 130.391 243.899C132.778 243.267 138.199 243.566 141.056 243.195C143.915 242.825 138.212 235.158 133.56 234.454C129.228 233.674 124.726 234.209 120.776 235.97C116.799 237.714 114.614 240.639 112.767 241.212L116.583 248.187Z" fill="#F4C5A2"/>
<path d="M117.082 237.678L86.8913 244.377L85.3945 261.406L121.046 250.587C121.801 244.569 117.082 237.678 117.082 237.678Z" fill="#02B3F5"/>
<path d="M42.6095 244.903C42.6095 244.903 34.2629 254.218 42.6095 267.055C42.6095 267.055 48.4481 274.22 64.4807 267.199L42.6095 244.903Z" fill="#02B3F5"/>
<path d="M67.3663 234.013C67.3663 234.013 80.3785 233.225 90.5858 239.554C91.156 240.81 92.1315 241.89 93.3906 242.659C95.4266 243.853 105.526 247.435 105.526 247.435C105.526 247.435 101.05 300.075 106.174 325.703C106.174 325.703 84.1674 340.928 49.81 325.703C49.81 325.703 44.7805 261.073 42.5691 244.879C42.6095 244.903 48.3403 238.622 67.3663 234.013Z" fill="#2A87C6"/>
<path d="M61.6223 320.914L0 289.352L20.752 342.576L82.3742 374.055L61.6223 320.914Z" fill="#BBCEE1"/>
<path d="M6.80946 285.852L0 289.352L61.6223 320.914L68.5126 317.367L6.80946 285.852Z" fill="white"/>
<path d="M68.5125 317.367L61.6221 320.914L82.3741 374.055L89.3319 370.509L68.5125 317.367Z" fill="#A7BCCE"/>
<path d="M157.17 271.501C157.17 271.501 160.541 268.503 161.822 267.644C163.104 266.783 167.634 263.01 170.183 262.508C172.731 262.007 168.376 265.9 167.863 267.118C167.351 268.336 170.452 266.15 172.825 265.362C175.467 264.582 178.338 264.667 180.916 265.602C186.754 267.44 186.471 277.77 181.698 276.552C173.864 274.546 170.331 280.063 165.652 281.221C163.472 281.717 161.254 282.076 159.018 282.296L157.17 271.501Z" fill="#F4C5A2"/>
<path d="M105.621 247.461L131.105 277.316L157.589 270.39C157.589 270.39 163.265 276.742 161.431 283.466L126.076 295.646L97.3417 267.654C97.3417 267.654 87.6735 249.956 105.621 247.461Z" fill="#02B3F5"/>
<path d="M101.401 222.334C100.174 233.416 90.9371 241.692 80.7701 240.808C70.6031 239.924 63.3891 230.203 64.5892 219.122C65.7892 208.04 75.0663 199.764 85.2198 200.647C95.3733 201.531 102.641 211.24 101.401 222.334Z" fill="#FED4BD"/>
<path d="M91.3549 191.178C91.3549 191.178 93.3236 195.345 83.9386 196.468C74.5538 197.59 62.9709 201.734 59.9235 210.499C57.9684 216.1 60.2337 222.107 63.4159 227.003C64.4792 228.698 65.7256 230.298 67.1375 231.779C71.8802 232.562 76.782 231.816 80.9587 229.678C84.1557 227.588 86.714 224.826 88.4019 221.641C88.4019 221.641 93.9844 223.707 95.7373 219.587C97.0182 216.554 101.05 215.802 103.248 214.154C103.248 214.178 115.91 195.883 91.3549 191.178Z" fill="#9D4D36"/>
<path d="M441.146 350.444L400.316 329.45V342.981L441.159 363.915L441.146 350.444Z" fill="#BBCEE1"/>
<path d="M442.52 307.968L400.316 329.451L441.146 350.444L483.418 328.926L442.52 307.968Z" fill="white"/>
<path d="M483.418 328.925L441.146 350.444L441.159 363.914L483.418 342.263V328.925Z" fill="#A7BCCE"/>
<path d="M441.146 328.316L400.316 307.322V320.853L441.159 341.787L441.146 328.316Z" fill="#BBCEE1"/>
<path d="M442.52 285.84L400.316 307.323L441.146 328.316L483.417 306.797L442.52 285.84Z" fill="white"/>
<path d="M483.417 306.796L441.146 328.316L441.159 341.786L483.417 320.124V306.796Z" fill="#A7BCCE"/>
<path d="M426.542 305.196C424.33 304.058 425.324 302.415 429.522 300.265C431.244 299.333 433.125 298.656 435.091 298.259C436.437 297.918 437.876 298.028 439.137 298.569C439.573 298.768 439.946 299.065 440.215 299.428C440.417 299.74 440.585 300.068 440.714 300.408L444.57 299.572C444.351 299.016 444.007 298.504 443.559 298.068C443.075 297.629 442.52 297.254 441.914 296.956C439.724 295.878 437.197 295.459 434.714 295.762C431.671 296.112 428.744 297.024 426.124 298.438C423.185 299.954 421.445 301.412 420.932 302.808C420.421 304.206 421.162 305.436 423.212 306.487C424.534 307.178 426.002 307.621 427.527 307.788L430.52 306.236C429.134 306.105 427.786 305.754 426.542 305.196Z" fill="#91A6B7"/>
<path d="M444.893 309.328C445.243 308.508 445.219 307.601 444.827 306.796C444.56 306.247 444.454 305.648 444.516 305.053C444.601 304.814 444.741 304.593 444.927 304.404C445.112 304.215 445.34 304.063 445.594 303.955C446.179 303.651 446.834 303.471 447.509 303.429C448.14 303.398 448.766 303.526 449.316 303.799C449.758 304.012 450.143 304.305 450.448 304.659C450.695 304.963 450.907 305.287 451.082 305.626L454.913 304.803C454.304 303.667 453.295 302.737 452.04 302.151C450.563 301.394 448.878 301.014 447.172 301.052C445.42 301.059 443.7 301.471 442.183 302.247C441.497 302.571 440.881 302.999 440.362 303.513C440.005 303.896 439.76 304.351 439.648 304.838C439.575 305.416 439.659 306.001 439.891 306.545C440.15 307.134 440.238 307.77 440.147 308.396C440.08 308.653 439.95 308.893 439.766 309.099C439.582 309.306 439.348 309.474 439.082 309.591C438.49 309.892 437.823 310.057 437.14 310.069C436.434 310.089 435.736 309.927 435.132 309.603C433.997 309.019 433.135 308.096 432.704 307L429.359 308.707C430.11 309.81 431.2 310.702 432.501 311.274C434.036 312.077 435.79 312.49 437.572 312.469C439.401 312.427 441.186 311.961 442.75 311.119C443.648 310.723 444.393 310.1 444.893 309.328Z" fill="#91A6B7"/>
<path d="M462.599 307.55C461.122 306.792 459.437 306.411 457.73 306.451C455.979 306.459 454.259 306.871 452.741 307.645C452.062 307.973 451.451 308.4 450.934 308.912C450.567 309.295 450.317 309.756 450.207 310.249C450.14 310.823 450.223 311.403 450.449 311.945C450.71 312.532 450.803 313.168 450.719 313.796C450.649 314.052 450.516 314.293 450.33 314.499C450.143 314.705 449.907 314.873 449.641 314.99C449.048 315.293 448.382 315.461 447.699 315.479C446.996 315.489 446.305 315.324 445.702 315.002C444.563 314.425 443.7 313.499 443.276 312.398L439.931 314.106C440.676 315.206 441.762 316.092 443.06 316.661C444.595 317.463 446.348 317.876 448.13 317.856C449.962 317.813 451.749 317.352 453.322 316.519C454.221 316.111 454.963 315.475 455.452 314.691C455.807 313.877 455.783 312.97 455.384 312.172C455.123 311.621 455.021 311.022 455.088 310.428C455.172 310.184 455.316 309.958 455.51 309.768C455.702 309.578 455.941 309.429 456.207 309.329C456.785 309.015 457.444 308.834 458.121 308.804C458.756 308.763 459.391 308.891 459.942 309.174C460.379 309.383 460.76 309.672 461.061 310.022C461.307 310.326 461.519 310.65 461.695 310.989L465.525 310.165C464.903 309.031 463.874 308.111 462.599 307.55Z" fill="#91A6B7"/>
<path d="M372.092 385.853L331.249 364.872V378.401L372.092 399.324V385.853Z" fill="#BBCEE1"/>
<path d="M373.454 343.387L331.25 364.871L372.093 385.853L414.352 364.346L373.454 343.387Z" fill="white"/>
<path d="M414.351 364.346L372.092 385.853V399.324L414.351 377.673V364.346Z" fill="#A7BCCE"/>
<path d="M372.092 363.724L331.25 342.73V356.261L372.092 377.195V363.724Z" fill="#BBCEE1"/>
<path d="M373.455 321.248L331.25 342.731L372.093 363.725L414.352 342.218L373.455 321.248Z" fill="white"/>
<path d="M414.351 342.217L372.093 363.724V377.194L414.351 355.544V342.217Z" fill="#A7BCCE"/>
<path d="M376.583 332.926L380.547 340.437L384.524 347.949L369.867 345.943L355.21 343.924L365.903 338.431L376.583 332.926Z" fill="#EF4136"/>
<path d="M303.027 421.269L262.197 400.276V413.806L303.027 434.74V421.269Z" fill="#BBCEE1"/>
<path d="M304.403 378.793L262.198 400.277L303.027 421.27L345.286 399.751L304.403 378.793Z" fill="white"/>
<path d="M345.3 399.75L303.027 421.269V434.739L345.3 413.089V399.75Z" fill="#A7BCCE"/>
<path d="M303.027 399.142L262.198 378.148V391.679L303.027 412.613V399.142Z" fill="#BBCEE1"/>
<path d="M304.403 356.666L262.198 378.149L303.028 399.143L345.287 377.624L304.403 356.666Z" fill="white"/>
<path d="M345.3 377.623L303.028 399.142V412.612L345.3 390.95V377.623Z" fill="#A7BCCE"/>
<path d="M315.769 385.887L313.275 384.562C311.345 385.215 309.328 385.645 307.274 385.84V387.691H301.045V385.84C298.986 385.643 296.966 385.213 295.031 384.562L292.482 385.876L288.06 383.607L290.622 382.305C289.483 381.498 288.612 380.434 288.1 379.224H284.486V376.024H288.1C288.59 374.816 289.444 373.752 290.568 372.942L288.006 371.629L292.402 369.372L294.963 370.674C296.895 370.026 298.911 369.596 300.964 369.396V367.545H307.194V369.396C309.251 369.596 311.271 370.025 313.208 370.674L315.756 369.372L320.179 371.629L317.63 372.942C318.764 373.751 319.63 374.815 320.139 376.024H323.765V379.212H320.017C319.52 380.416 318.668 381.48 317.55 382.293L320.111 383.607L315.769 385.887ZM298.24 380.598C300.03 381.404 302.01 381.824 304.018 381.824C306.026 381.824 308.006 381.404 309.796 380.598C312.978 378.961 312.965 376.311 309.796 374.626C308.006 373.82 306.026 373.4 304.018 373.4C302.01 373.4 300.03 373.82 298.24 374.626C295.058 376.275 295.071 378.925 298.24 380.598Z" fill="#1C75BC"/>
<path d="M353.014 102.735L313.344 82.4346C312.734 82.1263 312.039 81.9762 311.338 82.0015C310.636 82.0269 309.958 82.2267 309.379 82.5779L300.668 87.0323L304.714 91.8925L306.223 93.4211V128.22C306.224 129.238 306.528 130.239 307.103 131.121C307.678 132.004 308.505 132.737 309.5 133.247L339.165 148.449L339.475 149.906L345.529 157.417L354.848 152.569H354.915C355.351 152.334 355.711 152.002 355.958 151.606C356.207 151.21 356.335 150.765 356.331 150.312V107.943C356.343 106.893 356.043 105.859 355.461 104.945C354.878 104.031 354.034 103.269 353.014 102.735Z" fill="#FFA8E1"/>
<path d="M343.736 107.584L303.607 87.0677C303.159 86.8429 302.654 86.7256 302.139 86.7276C301.624 86.7294 301.119 86.8504 300.673 87.0785C300.227 87.3066 299.857 87.6338 299.598 88.0278C299.34 88.4218 299.202 88.8689 299.198 89.3247V131.873C299.2 132.891 299.504 133.889 300.079 134.77C300.654 135.649 301.48 136.38 302.474 136.889L342.604 157.441C343.062 157.673 343.582 157.794 344.11 157.793C344.638 157.791 345.157 157.666 345.614 157.432C346.07 157.198 346.45 156.861 346.715 156.456C346.98 156.052 347.119 155.592 347.12 155.124V112.767C347.121 111.716 346.809 110.683 346.215 109.772C345.621 108.862 344.766 108.107 343.736 107.584Z" fill="#FF7AD2"/>
<path d="M347.12 155.124V112.767C347.106 112.067 346.952 111.376 346.662 110.725L355.966 105.948C356.228 106.58 356.369 107.246 356.384 107.919V150.277C356.389 150.729 356.261 151.175 356.013 151.57C355.764 151.966 355.405 152.297 354.968 152.534H354.901L345.664 157.31C346.094 157.083 346.454 156.764 346.709 156.382C346.964 156 347.105 155.568 347.12 155.124Z" fill="#DE64C6"/>
<path d="M335.821 115.933C333.72 112.559 330.68 109.718 326.989 107.68C323.793 106.044 320.598 105.65 318.143 106.892C313.802 109.089 313.303 115.682 316.66 122.416L305.751 127.814L308.934 132.686L319.829 127.182C321.715 129.552 324.129 131.555 326.921 133.068C330.118 134.693 333.313 135.087 335.767 133.857C340.662 131.397 340.689 123.383 335.821 115.933ZM332.584 129.068C331.676 129.429 330.675 129.572 329.684 129.484C328.693 129.396 327.746 129.08 326.935 128.567C324.571 127.267 322.625 125.449 321.285 123.288C318.17 118.512 318.198 113.377 321.285 111.801C322.194 111.439 323.196 111.296 324.188 111.386C325.18 111.476 326.127 111.797 326.935 112.314C329.301 113.607 331.247 115.421 332.584 117.58C335.741 122.309 335.713 127.456 332.584 129.009V129.068Z" fill="white"/>
<path d="M266.149 20.7067L226.492 0.405548C225.884 0.0972214 225.188 -0.0528654 224.487 -0.0275208C223.786 -0.00217606 223.108 0.197578 222.528 0.548854L213.818 5.00316L217.863 9.86353L219.373 11.392V46.1906C219.374 47.2093 219.677 48.21 220.252 49.0922C220.827 49.9746 221.654 50.7077 222.649 51.218L252.315 66.4201L252.625 67.877L258.679 75.3884L267.996 70.54H268.064C268.501 70.3044 268.86 69.9726 269.108 69.577C269.357 69.1814 269.484 68.7355 269.48 68.283V25.9014C269.488 24.8528 269.186 23.8206 268.601 22.9086C268.016 21.9968 267.171 21.2373 266.149 20.7067Z" fill="#FCEC32"/>
<path d="M256.885 25.543L216.757 5.02694C216.309 4.80216 215.803 4.68489 215.288 4.68679C214.774 4.68869 214.268 4.80969 213.823 5.03777C213.377 5.26586 213.006 5.59311 212.748 5.98711C212.489 6.38111 212.352 6.82816 212.347 7.28395V49.8208C212.348 50.8396 212.652 51.8402 213.227 52.7225C213.802 53.6049 214.629 54.3379 215.624 54.8483L255.753 75.3883C256.21 75.6235 256.729 75.7477 257.258 75.7486C257.786 75.7493 258.306 75.6268 258.764 75.393C259.223 75.1593 259.603 74.8227 259.867 74.4172C260.131 74.0118 260.27 73.5518 260.27 73.0835V30.7258C260.271 29.6745 259.959 28.6416 259.364 27.7316C258.769 26.8215 257.915 26.0666 256.885 25.543Z" fill="#F5D012"/>
<path d="M260.27 73.0832V30.7255C260.256 30.0261 260.1 29.3345 259.812 28.6834L269.116 23.9067C269.377 24.5385 269.519 25.2043 269.533 25.8772V68.2349C269.538 68.6874 269.41 69.1332 269.162 69.5289C268.913 69.9245 268.554 70.2563 268.117 70.4919H268.051L258.814 75.2686C259.244 75.0421 259.604 74.723 259.858 74.3411C260.112 73.9591 260.254 73.5265 260.27 73.0832Z" fill="#EAA10C"/>
<path d="M224.996 29.198C225.652 29.5273 226.259 29.9286 226.802 30.3922C227.409 30.9177 228.029 31.4909 228.636 32.0999L229.755 29.819C228.398 28.4047 226.79 27.1948 224.996 26.2365C223.798 25.534 222.386 25.1716 220.95 25.1976C220.381 25.2419 219.835 25.4144 219.363 25.6988C218.891 25.983 218.509 26.3696 218.253 26.8217C217.565 28.0811 217.241 29.4722 217.309 30.87C217.255 33.388 217.894 35.8799 219.17 38.1306C220.399 40.2038 222.27 41.9233 224.564 43.0864C225.925 43.8424 227.45 44.3349 229.04 44.5314V41.5818C227.588 41.4019 226.183 40.9976 224.888 40.3876C222.19 38.9904 220.842 36.4467 220.842 32.7568C220.694 31.484 221.082 30.2075 221.934 29.1742C222.676 28.5174 223.688 28.5293 224.996 29.198Z" fill="#8444B2"/>
<path d="M238.264 36.0168L235.837 34.7749L235.824 39.1934L231.509 36.9961V39.48L235.81 41.6773L235.797 46.0361L238.237 47.278L238.25 42.9192L242.552 45.1285L242.565 42.6445L238.25 40.4473L238.264 36.0168Z" fill="#8444B2"/>
<path d="M251.262 47.0984L251.276 42.6679L248.836 41.426L248.822 45.8445L244.521 43.6471V46.1311L248.809 48.3283L248.795 52.6871L251.235 53.929L251.249 49.5704L255.55 51.7676L255.564 49.2957L251.262 47.0984Z" fill="#8444B2"/>
<path d="M485.629 102.139L445.972 81.838C445.361 81.5272 444.664 81.3758 443.959 81.4012C443.255 81.4265 442.574 81.6276 441.994 81.9812L433.283 86.4594L437.329 91.3317L438.838 92.8603V127.659C438.841 128.678 439.145 129.678 439.719 130.559C440.294 131.442 441.121 132.175 442.115 132.686L471.78 147.876L472.077 149.345L478.131 156.857L487.448 152.008C487.885 151.772 488.247 151.441 488.497 151.046C488.748 150.65 488.878 150.205 488.878 149.751V107.322C488.893 106.282 488.601 105.257 488.031 104.348C487.46 103.439 486.633 102.678 485.629 102.139Z" fill="#9263C1"/>
<path d="M476.351 106.963L436.222 86.459C435.777 86.2295 435.27 86.1086 434.754 86.1084C434.238 86.1081 433.732 86.2288 433.285 86.4579C432.84 86.687 432.469 87.0166 432.213 87.4131C431.956 87.8097 431.823 88.2592 431.827 88.716V131.252C431.826 132.271 432.126 133.271 432.699 134.154C433.272 135.036 434.096 135.769 435.09 136.28L475.218 156.82C475.676 157.055 476.195 157.18 476.723 157.181C477.253 157.182 477.772 157.059 478.229 156.825C478.688 156.591 479.068 156.255 479.333 155.85C479.597 155.444 479.736 154.984 479.736 154.516V112.146C479.737 111.095 479.424 110.062 478.83 109.151C478.236 108.242 477.381 107.487 476.351 106.963Z" fill="#8444B2"/>
<path d="M479.736 154.516V112.146C479.719 111.447 479.563 110.755 479.277 110.104L488.581 105.327C488.853 105.952 489 106.616 489.012 107.286V149.656C489.013 150.109 488.883 150.555 488.632 150.95C488.382 151.345 488.02 151.676 487.583 151.913L478.347 156.689C478.762 156.456 479.106 156.135 479.348 155.756C479.591 155.377 479.724 154.951 479.736 154.516Z" fill="#7231A3"/>
<path d="M444.96 104.276C444.432 104.951 444.201 105.776 444.314 106.593V111.68V111.811C444.314 112.778 443.963 113.291 443.261 113.364C442.193 113.332 441.157 113.024 440.282 112.479V116.062C441.42 116.611 442.426 117.349 443.248 118.236C443.942 119.023 444.308 119.997 444.286 120.994V126.022C444.257 127.049 444.474 128.071 444.92 129.019C445.412 129.948 446.109 130.78 446.97 131.467C448.165 132.384 449.466 133.185 450.854 133.856V130.512C449.994 130.094 449.253 129.51 448.683 128.804C448.292 128.193 448.1 127.499 448.13 126.798V121.795C448.13 119.871 446.943 118.128 444.529 116.54V116.349C446.916 117.208 448.102 116.611 448.143 114.581V109.805C448.143 109.028 448.345 108.611 448.723 108.384C449.1 108.156 449.829 108.384 450.881 108.897V105.553C449.693 104.855 448.399 104.308 447.037 103.93C446.688 103.816 446.311 103.788 445.945 103.849C445.58 103.91 445.239 104.057 444.96 104.276Z" fill="white"/>
<path d="M467.397 125.712C466.729 124.975 466.372 124.054 466.387 123.109V117.89C466.431 116.376 465.915 114.891 464.916 113.662C463.49 112.183 461.749 110.966 459.793 110.08V113.436C460.654 113.846 461.397 114.426 461.964 115.131C462.357 115.737 462.553 116.428 462.53 117.126V121.902C462.599 123.004 462.965 124.075 463.595 125.026C464.226 125.977 465.105 126.782 466.157 127.372V127.563C465.749 127.366 465.3 127.243 464.836 127.202C464.373 127.161 463.906 127.202 463.46 127.324C462.827 127.599 462.517 128.207 462.517 129.175V129.318V134.095C462.517 134.871 462.328 135.349 461.951 135.516C461.573 135.683 460.831 135.516 459.779 135.002V138.358C462.207 139.552 463.906 140.126 464.903 139.958C465.901 139.791 466.4 138.884 466.4 137.235V132.208C466.4 131.157 466.765 130.596 467.439 130.5C468.51 130.517 469.551 130.826 470.419 131.384V127.801C469.266 127.287 468.24 126.577 467.397 125.712Z" fill="white"/>
<path d="M440.242 186.76L400.585 166.459C399.975 166.149 399.278 165.997 398.576 166.02C397.872 166.043 397.19 166.241 396.608 166.59L387.91 171.044L391.955 175.905L393.466 177.446V212.244C393.465 213.26 393.766 214.258 394.339 215.138C394.912 216.019 395.736 216.75 396.729 217.259L426.394 232.461L426.69 233.919L432.758 241.442L442.062 236.593C442.483 236.345 442.827 236.008 443.064 235.611C443.299 235.215 443.419 234.772 443.411 234.325V191.943C443.434 190.91 443.154 189.889 442.599 188.981C442.043 188.073 441.231 187.307 440.242 186.76Z" fill="#79FF68"/>
<path d="M430.978 191.584L390.85 171.08C390.403 170.851 389.896 170.731 389.379 170.731C388.863 170.731 388.356 170.852 387.909 171.081C387.462 171.309 387.091 171.638 386.833 172.035C386.575 172.431 386.44 172.879 386.44 173.337V215.874C386.443 216.893 386.747 217.893 387.322 218.774C387.896 219.657 388.723 220.39 389.717 220.901L429.832 241.442C430.29 241.677 430.808 241.8 431.338 241.801C431.866 241.802 432.385 241.68 432.844 241.446C433.301 241.212 433.682 240.875 433.946 240.47C434.211 240.065 434.35 239.605 434.349 239.136V196.767C434.352 195.716 434.042 194.684 433.449 193.775C432.858 192.865 432.005 192.109 430.978 191.584Z" fill="#50E85E"/>
<path d="M434.349 239.137V196.767C434.332 196.068 434.178 195.377 433.891 194.725L443.208 189.949C443.471 190.576 443.611 191.238 443.627 191.907V234.265C443.634 234.712 443.515 235.155 443.279 235.552C443.043 235.948 442.699 236.286 442.278 236.534L433.041 241.311C433.444 241.071 433.774 240.748 434.002 240.368C434.23 239.989 434.35 239.567 434.349 239.137Z" fill="#3CC743"/>
<path d="M391.524 198.486L403.957 210.439L403.97 207.394L395.407 199.405L403.997 199.751V196.695L391.538 196.659L391.524 198.486Z" fill="#1F5E77"/>
<path d="M405.237 213.687L408.702 215.467L415.606 200.301L412.126 198.521L405.237 213.687Z" fill="#1F5E77"/>
<path d="M416.82 203.239V206.308L425.382 214.739L416.792 213.951L416.779 216.996L429.252 217.772L429.266 215.945L416.82 203.239Z" fill="#1F5E77"/>
<path d="M218.456 292.885C218.456 292.885 212.953 290.7 206.482 294.498C200.01 298.295 195.695 303.61 198.269 305.568C200.845 307.527 206.024 309.616 209.34 308.565C212.657 307.514 229.081 298.952 218.456 292.885Z" fill="#0F4463"/>
<path d="M355.049 270.423L303.89 296.098L271.286 279.392L322.445 253.729L355.049 270.423Z" fill="#ED5561"/>
<path d="M313.91 295.478V296.493L365.068 270.555V269.815L313.91 295.478Z" fill="#F0CEC9"/>
<path d="M365.068 269.813L313.91 295.476L281.305 278.77L332.464 253.118L365.068 269.813Z" fill="#FFFBF0"/>
<path d="M313.91 295.476V296.492L281.305 279.784V278.77L313.91 295.476Z" fill="#F5DDD8"/>
<path d="M332.1 255.854L351.799 265.92L350.937 266.35L331.236 256.283L332.1 255.854Z" fill="#DFBAB8"/>
<path d="M330.063 256.881L349.751 266.949L348.901 267.378L329.201 257.311L330.063 256.881Z" fill="#DFBAB8"/>
<path d="M325.29 259.27L352.42 273.134L351.557 273.564L324.427 259.699L325.29 259.27Z" fill="#DFBAB8"/>
<path d="M323.415 260.213L350.545 274.077L349.683 274.507L322.552 260.643L323.415 260.213Z" fill="#DFBAB8"/>
<path d="M321.541 261.156L348.658 275.02L347.809 275.45L320.678 261.586L321.541 261.156Z" fill="#DFBAB8"/>
<path d="M319.667 262.1L346.784 275.964L345.92 276.406L318.804 262.53L319.667 262.1Z" fill="#DFBAB8"/>
<path d="M317.779 263.042L344.91 276.907L344.046 277.349L316.917 263.472L317.779 263.042Z" fill="#DFBAB8"/>
<path d="M315.905 263.985L343.035 277.85L342.172 278.28L315.042 264.416L315.905 263.985Z" fill="#DFBAB8"/>
<path d="M314.031 264.93L341.161 278.795L340.297 279.236L313.168 265.371L314.031 264.93Z" fill="#DFBAB8"/>
<path d="M312.156 265.872L339.272 279.737L338.41 280.179L311.294 266.302L312.156 265.872Z" fill="#DFBAB8"/>
<path d="M310.269 266.815L337.398 280.679L336.535 281.121L309.405 267.245L310.269 266.815Z" fill="#DFBAB8"/>
<path d="M308.394 267.76L335.525 281.624L334.661 282.066L307.531 268.201L308.394 267.76Z" fill="#DFBAB8"/>
<path d="M306.52 268.702L333.651 282.579L332.787 283.008L305.657 269.144L306.52 268.702Z" fill="#DFBAB8"/>
<path d="M304.646 269.646L331.762 283.511L330.899 283.952L303.782 270.088L304.646 269.646Z" fill="#DFBAB8"/>
<path d="M302.758 270.59L329.888 284.466L329.025 284.896L301.895 271.032L302.758 270.59Z" fill="#DFBAB8"/>
<path d="M300.883 271.534L328.013 285.411L327.151 285.841L300.02 271.976L300.883 271.534Z" fill="#DFBAB8"/>
<path d="M299.01 272.488L326.139 286.352L325.277 286.783L298.146 272.918L299.01 272.488Z" fill="#DFBAB8"/>
<path d="M276.869 285.375H272.083V289.949H276.869C277.724 289.949 278.543 290.249 279.148 290.784C279.752 291.319 280.092 292.046 280.092 292.803V300.231C280.092 300.989 279.753 301.716 279.149 302.253C278.544 302.789 277.725 303.093 276.869 303.096H269.858V307.658H276.869C279.092 307.655 281.223 306.871 282.796 305.48C284.368 304.087 285.253 302.199 285.256 300.231V292.803C285.253 290.833 284.368 288.946 282.796 287.554C281.223 286.161 279.092 285.378 276.869 285.375Z" fill="#A7BCCE"/>
<path d="M275.115 282.854V308.589C275.115 312.577 268.374 315.813 260.108 315.813C251.843 315.813 245.113 312.577 245.113 308.589V282.854H275.115Z" fill="#BBCEE1"/>
<path d="M245.113 282.854C245.113 286.843 251.856 290.079 260.108 290.079C268.36 290.079 275.115 286.843 275.115 282.854C275.115 278.866 268.374 275.63 260.108 275.63C251.843 275.63 245.113 278.866 245.113 282.854Z" fill="white"/>
<path d="M248.094 282.759C248.094 285.876 253.487 288.408 260.108 288.408C266.728 288.408 272.123 285.876 272.123 282.759C272.123 279.642 266.728 277.11 260.108 277.11C253.487 277.11 248.094 279.642 248.094 282.759Z" fill="#A7BCCE"/>
<path d="M260.108 280.812C254.863 280.812 250.4 282.401 248.768 284.61C250.4 286.82 254.863 288.408 260.108 288.408C265.353 288.408 269.83 286.82 271.449 284.61C269.83 282.401 265.367 280.812 260.108 280.812Z" fill="#9D4D36"/>
<path d="M265.785 289.542V315.3C268.371 314.861 270.796 313.868 272.85 312.41V286.64C270.797 288.102 268.372 289.098 265.785 289.542Z" fill="#A7BCCE"/>
</g>
<defs>
<linearGradient id="paint0_linear_669_3743" x1="189.586" y1="240.998" x2="219.533" y2="129.737" gradientUnits="userSpaceOnUse">
<stop stop-color="#1C75BC"/>
<stop offset="0.28" stop-color="#2077BC"/>
<stop offset="0.54" stop-color="#2B7EBC"/>
<stop offset="0.8" stop-color="#3E88BC"/>
<stop offset="1" stop-color="#5394BC"/>
</linearGradient>
<clipPath id="clip0_669_3743">
<rect width="489" height="435" fill="white"/>
</clipPath>
</defs>
</svg>
